<svg width="15" height="15" viewBox="0 0 15 15" fill="none" xmlns="http://www.w3.org/2000/svg">
<path d="M15 7.5C15 3.35744 11.6426 0 7.5 0C3.35744 0 0 3.35744 0 7.5C0 11.2442 2.74219 14.3467 6.32812 14.9092V9.66797H4.42381V7.5H6.32812V5.84766C6.32812 3.96825 7.44728 2.92969 9.16113 2.92969C9.98144 2.92969 10.8398 3.07617 10.8398 3.07617V4.92188H9.89356C8.96191 4.92188 8.67188 5.5005 8.67188 6.09375V7.5H10.7519L10.4194 9.66797H8.67188V14.9092C12.2578 14.3467 15 11.2442 15 7.5Z" fill="#1877F2"/>
<path d="M10.4195 9.66797L10.752 7.5H8.67189V6.09375C8.67189 5.5005 8.96192 4.92188 9.89358 4.92188H10.8399V3.07617C10.8399 3.07617 9.98145 2.92969 9.16114 2.92969C7.4473 2.92969 6.32814 3.96825 6.32814 5.84766V7.5H4.42383V9.66797H6.32814V14.9092C6.71045 14.9692 7.10158 15 7.50002 15C7.89845 15 8.28958 14.9692 8.67189 14.9092V9.66797H10.4195Z" fill="white"/>
</svg>
