<svg width="23" height="23" viewBox="0 0 23 23" fill="none" xmlns="http://www.w3.org/2000/svg">
<g filter="url(#filter0_d_298_108)">
<circle cx="11.5" cy="7.5" r="7.5" fill="url(#paint0_radial_298_108)"/>
<circle cx="11.5" cy="7.5" r="7.5" fill="url(#paint1_radial_298_108)"/>
<path d="M11.5004 3C10.2783 3 10.1249 3.00534 9.6449 3.02719C9.16584 3.04913 8.83883 3.12497 8.5527 3.23625C8.25673 3.35119 8.00567 3.50494 7.75554 3.75516C7.50522 4.00528 7.35147 4.25634 7.23616 4.55222C7.12459 4.83844 7.04866 5.16553 7.02709 5.64441C7.00563 6.12441 7 6.27787 7 7.5C7 8.72213 7.00544 8.87503 7.02719 9.35503C7.04922 9.83409 7.12506 10.1611 7.23625 10.4472C7.35128 10.7432 7.50504 10.9943 7.75526 11.2444C8.00529 11.4947 8.25636 11.6488 8.55214 11.7638C8.83846 11.875 9.16555 11.9509 9.64453 11.9728C10.1245 11.9947 10.2778 12 11.4999 12C12.7221 12 12.875 11.9947 13.355 11.9728C13.8341 11.9509 14.1614 11.875 14.4478 11.7638C14.7436 11.6488 14.9943 11.4947 15.2444 11.2444C15.4947 10.9943 15.6484 10.7432 15.7637 10.4473C15.8744 10.1611 15.9503 9.834 15.9728 9.35513C15.9944 8.87513 16 8.72213 16 7.5C16 6.27787 15.9944 6.1245 15.9728 5.6445C15.9503 5.16544 15.8744 4.83844 15.7637 4.55231C15.6484 4.25634 15.4947 4.00528 15.2444 3.75516C14.9941 3.50484 14.7437 3.35109 14.4475 3.23625C14.1606 3.12497 13.8334 3.04913 13.3543 3.02719C12.8743 3.00534 12.7215 3 11.499 3H11.5004ZM11.0967 3.81094C11.2165 3.81075 11.3502 3.81094 11.5004 3.81094C12.7019 3.81094 12.8443 3.81525 13.3188 3.83681C13.7576 3.85688 13.9957 3.93019 14.1543 3.99178C14.3643 4.07334 14.514 4.17084 14.6715 4.32834C14.829 4.48584 14.9265 4.63584 15.0082 4.84584C15.0698 5.00428 15.1432 5.24241 15.1632 5.68116C15.1847 6.15553 15.1894 6.29803 15.1894 7.49897C15.1894 8.69991 15.1847 8.84241 15.1632 9.31678C15.1431 9.75553 15.0698 9.99366 15.0082 10.1521C14.9266 10.3621 14.829 10.5116 14.6715 10.669C14.514 10.8265 14.3644 10.924 14.1543 11.0056C13.9959 11.0675 13.7576 11.1406 13.3188 11.1607C12.8444 11.1822 12.7019 11.1869 11.5004 11.1869C10.2988 11.1869 10.1564 11.1822 9.68203 11.1607C9.24327 11.1404 9.00515 11.0671 8.84643 11.0055C8.63642 10.9239 8.48642 10.8264 8.32892 10.6689C8.17142 10.5114 8.07392 10.3618 7.99217 10.1517C7.93057 9.99328 7.85717 9.75516 7.8372 9.31641C7.81563 8.84203 7.81132 8.69953 7.81132 7.49784C7.81132 6.29616 7.81563 6.15441 7.8372 5.68003C7.85726 5.24128 7.93057 5.00316 7.99217 4.84453C8.07373 4.63453 8.17142 4.48453 8.32892 4.32703C8.48642 4.16953 8.63642 4.07203 8.84643 3.99028C9.00505 3.92841 9.24327 3.85528 9.68203 3.83513C10.0972 3.81638 10.258 3.81075 11.0967 3.80981V3.81094ZM13.9025 4.55812C13.6044 4.55812 13.3625 4.79972 13.3625 5.09794C13.3625 5.39606 13.6044 5.63794 13.9025 5.63794C14.2006 5.63794 14.4425 5.39606 14.4425 5.09794C14.4425 4.79981 14.2006 4.55794 13.9025 4.55794V4.55812ZM11.5004 5.18906C10.2242 5.18906 9.18946 6.22378 9.18946 7.5C9.18946 8.77622 10.2242 9.81047 11.5004 9.81047C12.7767 9.81047 13.811 8.77622 13.811 7.5C13.811 6.22378 12.7766 5.18906 11.5003 5.18906H11.5004ZM11.5004 6C12.3288 6 13.0004 6.67153 13.0004 7.5C13.0004 8.32837 12.3288 9 11.5004 9C10.6719 9 10.0004 8.32837 10.0004 7.5C10.0004 6.67153 10.6719 6 11.5004 6Z" fill="white"/>
</g>
<defs>
<filter id="filter0_d_298_108" x="0" y="0" width="23" height="23" filterUnits="userSpaceOnUse" color-interpolation-filters="sRGB">
<feFlood flood-opacity="0" result="BackgroundImageFix"/>
<feColorMatrix in="SourceAlpha" type="matrix" values="0 0 0 0 0 0 0 0 0 0 0 0 0 0 0 0 0 0 127 0" result="hardAlpha"/>
<feOffset dy="4"/>
<feGaussianBlur stdDeviation="2"/>
<feComposite in2="hardAlpha" operator="out"/>
<feColorMatrix type="matrix" values="0 0 0 0 0 0 0 0 0 0 0 0 0 0 0 0 0 0 0.25 0"/>
<feBlend mode="normal" in2="BackgroundImageFix" result="effect1_dropShadow_298_108"/>
<feBlend mode="normal" in="SourceGraphic" in2="effect1_dropShadow_298_108" result="shape"/>
</filter>
<radialGradient id="paint0_radial_298_108" cx="0" cy="0" r="1" gradientUnits="userSpaceOnUse" gradientTransform="translate(7.98439 16.1553) rotate(-90) scale(14.8661 13.8266)">
<stop stop-color="#FFDD55"/>
<stop offset="0.1" stop-color="#FFDD55"/>
<stop offset="0.5" stop-color="#FF543E"/>
<stop offset="1" stop-color="#C837AB"/>
</radialGradient>
<radialGradient id="paint1_radial_298_108" cx="0" cy="0" r="1" gradientUnits="userSpaceOnUse" gradientTransform="translate(1.48742 1.08057) rotate(78.6806) scale(6.64521 27.3918)">
<stop stop-color="#3771C8"/>
<stop offset="0.128" stop-color="#3771C8"/>
<stop offset="1" stop-color="#6600FF" stop-opacity="0"/>
</radialGradient>
</defs>
</svg>
